HIERARCHY
ROOT Bip01_Pelvis
{
	OFFSET 0.000000 0.916349 0.000000
	CHANNELS 6 Xposition Yposition Zposition Zrotation Yrotation Xrotation 
	JOINT Bip01_Spine
	{
		OFFSET -0.007157 -0.053105 0.130545
		CHANNELS 3 Zrotation Yrotation Xrotation
		JOINT Bip01_Spine1
		{
			OFFSET -0.051320 -0.022868 0.243286
			CHANNELS 3 Zrotation Yrotation Xrotation
			JOINT Bip01_Neck
			{
				OFFSET 0.014365 0.130467 0.260069
				CHANNELS 3 Zrotation Yrotation Xrotation
				JOINT Bip01_Neck1
				{
					OFFSET 0.003849 0.158046 0.062113
					CHANNELS 3 Zrotation Yrotation Xrotation
					JOINT Bip01_Head
					{
						OFFSET -0.006429 0.098206 0.047485
						CHANNELS 3 Zrotation Yrotation Xrotation
						End Site #name: BN_Mouth_01
						{
							OFFSET -0.002295 0.021650 0.085909
						}
					}
				}
				JOINT Bip01_L_Clavicle
				{
					OFFSET -0.124716 0.010400 -0.063351
					CHANNELS 3 Zrotation Yrotation Xrotation
					JOINT Bip01_L_UpperArm
					{
						OFFSET 0.267412 -0.063158 0.002861
						CHANNELS 3 Zrotation Yrotation Xrotation
						JOINT Bip01_L_Forearm
						{
							OFFSET -0.002439 -0.267759 0.018123
							CHANNELS 3 Zrotation Yrotation Xrotation
							JOINT Bip01_L_Hand
							{
								OFFSET -0.001546 -0.270565 0.084669
								CHANNELS 3 Zrotation Yrotation Xrotation
								End Site #name: Bip01_L_Finger0
								{
									OFFSET 0.007180 -0.226700 0.021191
								}
							}
						}
						End Site #name: BN__UpperArm_L_01
						{
							OFFSET 0.032844 -0.089498 -0.039528
						}
					}
				}
				JOINT Bip01_R_Clavicle
				{
					OFFSET 0.118604 -0.009585 -0.074295
					CHANNELS 3 Zrotation Yrotation Xrotation
					JOINT Bip01_R_UpperArm
					{
						OFFSET -0.269177 -0.050241 0.022910
						CHANNELS 3 Zrotation Yrotation Xrotation
						JOINT Bip01_R_Forearm
						{
							OFFSET 0.023429 -0.258302 -0.068997
							CHANNELS 3 Zrotation Yrotation Xrotation
							JOINT Bip01_R_Hand
							{
								OFFSET 0.025815 -0.282119 0.010870
								CHANNELS 3 Zrotation Yrotation Xrotation
								End Site #name: Bip01_R_Finger0
								{
									OFFSET -0.011765 -0.226637 0.019751
								}
							}
						}
						End Site #name: BN__UpperArm_R_01
						{
							OFFSET -0.027772 -0.074692 -0.065580
						}
					}
				}
			}
		}
		JOINT Bip01_L_Thigh
		{
			OFFSET 0.132066 0.044772 -0.128199
			CHANNELS 3 Zrotation Yrotation Xrotation
			JOINT Bip01_L_Calf
			{
				OFFSET 0.007329 -0.274491 -0.029074
				CHANNELS 3 Zrotation Yrotation Xrotation
				JOINT Bip01_L_HorseLink
				{
					OFFSET -0.000102 -0.253851 -0.128518
					CHANNELS 3 Zrotation Yrotation Xrotation
					JOINT Bip01_L_Foot
					{
						OFFSET 0.010975 -0.241240 0.041429
						CHANNELS 3 Zrotation Yrotation Xrotation
						End Site #name: Bip01_L_Toe0
						{
							OFFSET 0.008695 -0.129655 0.095116
						}
					}
				}
			}
		}
		JOINT Bip01_R_Thigh
		{
			OFFSET -0.089102 0.040751 -0.137305
			CHANNELS 3 Zrotation Yrotation Xrotation
			JOINT Bip01_R_Calf
			{
				OFFSET -0.032107 -0.272549 0.030497
				CHANNELS 3 Zrotation Yrotation Xrotation
				JOINT Bip01_R_HorseLink
				{
					OFFSET -0.009390 -0.272615 -0.080933
					CHANNELS 3 Zrotation Yrotation Xrotation
					JOINT Bip01_R_Foot
					{
						OFFSET -0.038085 -0.228295 0.080401
						CHANNELS 3 Zrotation Yrotation Xrotation
						End Site #name: Bip01_R_Toe0
						{
							OFFSET -0.036532 -0.129925 0.087853
						}
					}
				}
			}
		}
	}
	JOINT BN_Tail_01
	{
		OFFSET 0.037349 0.070844 -0.124429
		CHANNELS 3 Zrotation Yrotation Xrotation
		End Site #name: BN_Tail_02
		{
			OFFSET 0.004549 -0.162064 -0.101273
		}
	}
}
MOTION
Frames: 9
Frame Time: 0.041667
-0.034318 0.778386 -0.001202 88.641976 -15.670457 -34.521492 -84.129748 39.940482 3.643888 39.101657 13.127575 9.025622 -45.561582 -17.806741 42.973545 0.366517 -17.789303 -16.560411 -37.525132 -47.097267 -30.262451 17.883603 29.915589 -68.839699 -42.106387 -14.895892 84.609931 -6.304452 2.912958 -55.331622 -99.796603 68.578072 -92.484266 -15.406813 -21.081509 -42.179339 30.071705 -0.443029 -11.973814 4.388148 -8.392483 -29.483307 77.841190 -75.573924 -65.648655 -21.514340 20.865624 -53.662456 21.235226 -14.967999 33.686178 -29.807038 -11.056353 -42.467718 5.573380 4.489478 40.655231 -20.069032 55.916699 -6.868152 53.937663 -8.428037 -3.574500 -55.142027 -10.607287 1.564659 -6.330863 -14.947868 -8.545409 -82.734050 34.958411 -7.223235 
-0.034330 0.774941 -0.003375 88.782488 -15.439817 -35.519163 -84.274943 40.559788 3.970462 39.237909 13.569740 9.693165 -45.283822 -18.556178 44.546417 -0.599384 -18.087724 -17.841099 -36.213551 -46.724633 -30.377122 16.722159 31.137720 -70.399563 -42.597871 -15.229059 84.659004 -6.326003 2.853552 -55.923336 -99.617240 68.155460 -92.197084 -14.955334 -20.457955 -44.140702 29.278101 -1.164143 -10.532519 4.877187 -8.425903 -32.768351 77.584288 -75.686995 -64.699912 -21.587578 21.157353 -53.899882 21.314979 -15.105546 34.028320 -30.004618 -11.386988 -43.458746 5.830827 4.491891 41.346585 -21.586925 55.653126 -8.394484 55.290043 -8.759422 -3.211061 -56.014595 -10.779237 1.074217 -6.063599 -14.491784 -8.454522 -82.631014 34.942469 -6.693636 
-0.034354 0.767261 -0.008064 89.172252 -14.904212 -37.768713 -84.595324 41.958624 4.692396 39.561024 14.571678 11.197424 -44.731503 -20.268474 48.104512 -2.775324 -18.835300 -20.691377 -33.277821 -45.950804 -30.563252 13.874376 33.806547 -74.046453 -43.688528 -15.992672 84.742036 -6.370088 2.725669 -57.189768 -99.267496 67.175043 -91.602767 -14.144529 -18.950166 -48.483105 27.503930 -2.865611 -7.705535 5.851892 -8.409927 -39.303895 77.932888 -75.544427 -63.378006 -21.733709 21.871192 -54.363530 21.462869 -15.365659 34.672180 -30.427901 -12.141910 -45.685980 6.404444 4.474035 42.950401 -25.413963 55.147506 -12.297364 58.523589 -9.586384 -2.372737 -57.641247 -11.119944 0.164980 -5.703980 -13.796165 -8.400618 -82.369431 34.933297 -5.241127 
-0.034392 0.756508 -0.015536 89.625579 -14.065419 -40.805561 -84.985889 43.898066 5.700302 40.047542 15.816133 13.287396 -44.181785 -22.538642 52.933311 -5.654816 -19.956175 -24.451657 -29.410396 -45.107089 -30.578183 9.606349 37.175284 -79.321212 -45.081680 -17.079031 84.715242 -6.423807 2.555806 -58.857644 -99.049749 65.799993 -90.998529 -13.313135 -16.766328 -54.169786 25.065310 -5.091852 -4.770335 7.007813 -8.246420 -47.132831 79.005678 -75.652858 -62.198120 -21.900379 22.782254 -55.024998 21.647302 -15.699603 35.493359 -30.942761 -13.163849 -48.632594 7.218022 4.450880 45.213478 -30.387356 54.172151 -17.384235 62.891380 -10.776664 -1.313247 -59.794464 -11.610938 -1.027619 -5.183151 -12.811177 -8.309444 -81.957740 34.902432 -3.042665 
-0.034447 0.743847 -0.026065 89.982349 -12.942753 -44.170839 -85.341106 46.144512 6.893497 40.648251 16.995013 15.693201 -43.854147 -24.906427 58.336813 -8.828213 -21.293210 -28.400726 -25.299741 -44.480575 -30.312830 4.359816 40.535628 -85.635290 -46.500429 -18.346491 84.443032 -6.477100 2.367244 -60.691383 -99.121588 64.230318 -90.572846 -12.661186 -14.199526 -60.229007 22.241290 -7.326903 -2.609328 8.154863 -7.919723 -55.130460 80.115657 -76.849923 -61.000560 -22.045981 23.660459 -55.864730 21.842635 -16.065822 36.387253 -31.436462 -14.286979 -51.796603 8.202206 4.429947 47.875277 -35.405388 52.612509 -22.516838 67.742542 -12.188823 -0.242600 -62.299879 -12.239238 -2.397886 -4.435585 -11.492794 -8.083052 -81.423691 34.844166 -0.283339 
-0.034519 0.730443 -0.039918 90.168485 -11.555941 -47.408999 -85.543986 48.452443 8.197480 41.270683 17.797915 18.132340 -43.812876 -26.890010 63.563168 -11.851530 -22.580472 -31.900649 -21.605843 -44.247887 -29.762707 -1.058218 43.342882 -92.148935 -47.678218 -19.632549 83.840517 -6.523926 2.178364 -62.511860 -99.594328 62.706493 -90.469145 -12.108693 -11.622542 -65.790716 19.276520 -8.989205 -1.815931 9.185694 -7.468746 -62.673270 79.407892 -80.107048 -58.595104 -22.144540 24.272750 -56.865075 22.033392 -16.437071 37.286625 -31.834627 -15.339543 -54.705725 9.301018 4.406074 50.675415 -39.608467 50.513183 -26.783769 72.566029 -13.675799 0.702475 -65.027479 -12.989058 -3.867524 -3.402285 -9.802055 -7.617328 -80.801995 34.764448 2.847557 
-0.034609 0.717454 -0.057368 90.146213 -9.938790 -50.106664 -85.498619 50.561286 9.534912 41.792198 17.940492 20.296514 -43.988961 -28.005173 67.810220 -14.367204 -23.455923 -34.305031 -18.959865 -44.420516 -29.032741 -5.386682 45.313004 -97.675189 -48.384464 -20.749728 82.858864 -6.562077 2.002258 -64.198446 -100.456107 61.500594 -90.730965 -11.276797 -9.426421 -70.066437 16.330890 -9.455675 -2.958140 10.025335 -6.971046 -69.211196 64.404928 -86.209834 -43.154848 -22.177757 24.392177 -57.975405 22.206347 -16.786036 38.126169 -32.098755 -16.144410 -56.901794 10.457387 4.371775 53.343570 -42.440225 48.034579 -29.574006 76.944808 -15.086411 1.450052 -67.908123 -13.864392 -5.386481 -2.025756 -7.703222 -6.780784 -80.096114 34.670916 6.170510 
-0.034719 0.706046 -0.078682 89.928263 -8.114874 -51.832733 -85.126005 52.215957 10.825007 42.066751 17.137815 21.877188 -44.210048 -27.789722 70.205989 -16.034537 -23.483333 -35.001810 -17.994135 -44.900977 -28.178729 -7.053904 46.393891 -100.795007 -48.420605 -21.481873 81.469815 -6.590677 1.849956 -65.647742 -101.729407 60.933214 -91.430506 -9.581225 -8.011600 -72.287520 13.389803 -8.121078 -6.778728 10.579561 -6.564841 -73.810226 -76.913394 -83.055051 96.813646 -22.136205 23.798359 -59.095663 22.344135 -17.073604 38.814089 -32.212841 -16.528241 -57.941818 11.628211 4.325972 55.614472 -43.588262 45.369971 -30.525920 80.505745 -16.268964 1.976592 -70.886884 -14.847870 -6.922573 -0.242184 -5.190822 -5.411561 -79.398941 34.543917 9.487442 
-0.035206 0.695629 -0.105249 89.585583 -6.130938 -52.830301 -84.361058 53.618705 12.184870 42.122516 15.447008 23.016281 -44.411185 -26.193229 70.989803 -17.099290 -22.553656 -34.092380 -18.495490 -45.746361 -27.043373 -5.906270 46.894871 -101.647908 -47.899664 -21.985896 79.770047 -6.621031 1.658260 -67.463624 -103.670771 61.170503 -92.817484 -5.199344 -8.497176 -72.763991 7.165958 0.507781 2.227405 12.272405 -4.756367 -90.411902 -92.202794 -62.525140 106.851623 -22.246719 22.191262 -61.025924 22.612008 -17.659055 40.204343 -32.162354 -16.355235 -57.473460 12.531536 4.378781 56.899240 -44.080324 42.254339 -30.736528 83.755753 -17.370675 2.390968 -73.734052 -15.863569 -8.352730 1.754158 -2.414230 -3.528646 -78.668300 34.424719 12.629344 
